<svg xmlns="http://www.w3.org/2000/svg" viewBox="0 0 376.27 351.61"><defs><style>.cls-1,.cls-2,.cls-4{fill:none;stroke:red;}.cls-1,.cls-2{stroke-linejoin:bevel;}.cls-1{stroke-width:10px;}.cls-2,.cls-4{stroke-width:4px;}.cls-3{fill:red;}.cls-4{stroke-miterlimit:10;}</style></defs><g id="Layer_2" data-name="Layer 2"><g id="Layer_1-2" data-name="Layer 1"><polyline class="cls-1" points="55.76 118.79 55.76 80.99 188.57 80.99 244.44 136.86 244.44 324.07 55.76 324.07 55.76 162.7"/><polyline class="cls-1" points="188.57 80.99 188.57 136.86 244.44 136.86"/><path class="cls-1" d="M86.14,81V50.61H274.82V293.69H244.44"/><rect class="cls-1" x="15.93" y="118.79" width="81.19" height="43.91"/><line class="cls-2" x1="70.95" y1="182.83" x2="101.33" y2="182.83"/><line class="cls-2" x1="70.95" y1="212.33" x2="101.33" y2="212.33"/><line class="cls-2" x1="70.95" y1="241.77" x2="101.33" y2="241.77"/><line class="cls-2" x1="70.95" y1="271.34" x2="101.33" y2="271.34"/><line class="cls-2" x1="70.95" y1="300.91" x2="101.33" y2="300.91"/><line class="cls-2" x1="113.21" y1="153.36" x2="219.36" y2="153.36"/><line class="cls-2" x1="113.21" y1="182.83" x2="219.36" y2="182.83"/><line class="cls-2" x1="113.26" y1="212.33" x2="219.42" y2="212.33"/><line class="cls-2" x1="113.26" y1="241.82" x2="219.42" y2="241.82"/><line class="cls-2" x1="113.21" y1="271.34" x2="219.36" y2="271.34"/><line class="cls-2" x1="113.26" y1="300.91" x2="219.42" y2="300.91"/><polygon class="cls-3" points="30.98 266.96 0 297.95 11.34 340.27 53.66 351.61 84.65 320.63 73.31 278.3 30.98 266.96"/><polygon class="cls-4" points="264.57 75.03 274.82 32.42 243.06 2.25 201.03 14.67 190.78 57.27 222.55 87.45 264.57 75.03"/><polygon class="cls-3" points="280.91 275.61 255.96 282.99 249.87 308.29 268.74 326.21 293.69 318.83 299.77 293.54 280.91 275.61"/><polygon class="cls-4" points="38.65 44.85 17.78 44.85 7.35 62.92 17.78 80.99 38.65 80.99 49.09 62.92 38.65 44.85"/><polygon class="cls-3" points="296.39 72.34 274.82 84.8 274.82 244.38 296.39 256.83 376.27 210.71 376.27 118.47 296.39 72.34"/></g></g></svg>