<svg xmlns="http://www.w3.org/2000/svg" viewBox="0 0 1012.75 400.35"><defs><style>.cls-1{fill:red;}.cls-2,.cls-3{fill:none;stroke:red;}.cls-2{stroke-linejoin:bevel;stroke-width:10px;}.cls-3{stroke-miterlimit:10;stroke-width:4px;}</style></defs><g id="Layer_2" data-name="Layer 2"><g id="Layer_1-2" data-name="Layer 1"><polygon class="cls-1" points="932.86 132.45 911.3 144.9 911.3 304.48 932.86 316.93 1012.75 270.81 1012.75 178.57 932.86 132.45"/><polyline class="cls-2" points="69 314.93 244.65 221.85 317.69 286.3 539.89 168.56 635.54 252.96 880.83 122.98"/><polygon class="cls-1" points="870.14 108.02 887.2 140.23 894.77 115.59 870.14 108.02"/><rect class="cls-2" x="69" y="82.02" width="842.3" height="232.91"/><polygon class="cls-1" points="129.8 296.03 129.8 316.93 100.15 316.93 100.15 311.74 129.8 296.03"/><polygon class="cls-1" points="169.23 275.13 169.23 316.93 139.59 316.93 139.59 290.84 169.23 275.13"/><polygon class="cls-1" points="208.67 254.23 208.67 316.93 179.03 316.93 179.03 269.94 208.67 254.23"/><polygon class="cls-1" points="248.11 240.23 248.11 316.93 218.47 316.93 218.47 249.04 243.23 235.92 248.11 240.23"/><polygon class="cls-1" points="287.55 275.03 287.55 316.93 257.9 316.93 257.9 248.87 287.55 275.03"/><polygon class="cls-1" points="326.99 294.68 326.99 316.93 297.34 316.93 297.34 283.67 311.08 295.8 322.37 297.13 326.99 294.68"/><polygon class="cls-1" points="366.42 273.79 366.42 316.93 336.78 316.93 336.78 289.49 366.42 273.79"/><polygon class="cls-1" points="405.86 252.89 405.86 316.93 376.22 316.93 376.22 268.6 405.86 252.89"/><polygon class="cls-1" points="445.3 231.99 445.3 316.93 415.66 316.93 415.66 247.7 445.3 231.99"/><polygon class="cls-1" points="484.74 211.09 484.74 316.93 455.09 316.93 455.09 226.81 484.74 211.09"/><polygon class="cls-1" points="524.18 190.2 524.18 316.93 494.53 316.93 494.53 205.91 524.18 190.2"/><polygon class="cls-1" points="563.61 204.82 563.61 316.93 533.97 316.93 533.97 185.01 538.46 182.63 563.61 204.82"/><polygon class="cls-1" points="603.05 239.63 603.05 316.93 573.41 316.93 573.41 213.47 603.05 239.63"/><polygon class="cls-1" points="642.49 262.6 642.49 316.93 612.85 316.93 612.85 248.28 628.92 262.46 640.22 263.8 642.49 262.6"/><polygon class="cls-1" points="681.93 241.7 681.93 316.93 652.28 316.93 652.28 257.41 681.93 241.7"/><polygon class="cls-1" points="721.37 220.8 721.37 316.93 691.72 316.93 691.72 236.51 721.37 220.8"/><polygon class="cls-1" points="760.8 199.9 760.8 316.93 731.16 316.93 731.16 215.61 760.8 199.9"/><polygon class="cls-1" points="800.24 179 800.24 316.93 770.6 316.93 770.6 194.71 800.24 179"/><polygon class="cls-1" points="839.68 158.1 839.68 316.93 810.04 316.93 810.04 173.81 839.68 158.1"/><polygon class="cls-1" points="742.89 60.85 714.12 119.32 649.1 123.65 612.85 69.5 641.62 11.03 706.63 6.7 742.89 60.85"/><polygon class="cls-3" points="800.24 350.31 800.24 379.35 775.09 393.87 749.95 379.35 749.95 350.31 775.09 335.8 800.24 350.31"/><polygon class="cls-1" points="169.23 109.78 107.29 47.84 22.67 70.51 0 155.12 61.94 217.06 146.56 194.39 169.23 109.78"/><polygon class="cls-1" points="275.1 312.56 375.4 400.35 504.57 356.37 513.24 312.56 275.1 312.56"/><polygon class="cls-3" points="399.72 82.02 382.86 19.1 319.91 2.23 273.83 48.31 282.87 82.02 399.72 82.02"/></g></g></svg>