<svg xmlns="http://www.w3.org/2000/svg" viewBox="0 0 421.12 355.82"><defs><style>.cls-1{fill:none;stroke:red;stroke-linejoin:bevel;stroke-width:10px;}.cls-2{fill:red;}</style></defs><g id="Layer_2" data-name="Layer 2"><g id="Layer_1-2" data-name="Layer 1"><polygon class="cls-1" points="187.36 217.34 392.37 12.34 417.59 37.56 212.58 242.56 169.94 259.99 187.36 217.34"/><line class="cls-1" x1="187.36" y1="217.34" x2="212.58" y2="242.56"/><line class="cls-1" x1="405.33" y1="49.82" x2="380.11" y2="24.6"/><polygon class="cls-2" points="292.82 124.62 282.82 134.62 282.82 159.6 292.82 149.6 292.82 124.62"/><polygon class="cls-2" points="282.82 119.34 282.82 128.96 292.82 118.96 292.82 114.34 291.35 110.81 289.09 108.55 278.29 119.34 282.82 119.34"/><polygon class="cls-2" points="313 84.64 313.2 84.68 313.2 98.58 323.2 88.58 323.2 86.84 324.62 87.15 358.64 53.14 355.2 42.43 352.02 45.61 354.3 52.7 326.41 83.44 323.2 82.75 323.2 74.44 313 84.64"/><polygon class="cls-2" points="323.4 94.03 302.99 114.44 308.27 134.15 343.11 99.31 323.4 94.03"/><path class="cls-2" d="M303.66,276.17H318.2l5-5V144.67l-10,10v111.5H292.82V175.06l-10,10v88.29l-23.2,23.21H149.88l.43-1.77L116.87,263l-12.73,3.77V63.48H227v50.86l5,5h40.68l13.63-13.62L235.48,54.94,232,53.48H134.52V33.09h135.1l-1,1.08,14.09,43.92,25.61,5.54,3.36-3.37-25.87-5.59L273.16,35.14l1.86-2H313.2V78.78l10-10V28.09l-5-5H284.09l17-18.69,40.57,8.78,9,28.15,3.18-3.18L344.72,9.76,299.64,0,278.69,23.09H129.52l-5,5V53.48H99.14l-5,5V76.3L79.88,68.07,0,114.19v92.25l79.88,46.12,14.26-8.23v25.41L72.63,276.1,61.84,320.94l33.44,31.77,44.24-13.07,8-33.08H255.19l10.17,37.92,42.32,11.34,31-31-11.34-42.33ZM237,70.55l38.8,38.79H237ZM136.17,336.46,96.36,348.22,66.27,319.64,76,279.28l18.16-5.37v27.65l5,5h44.22Zm9.6-39.9H104.14V271l11.65-3.45,30.09,28.59Z"/><polygon class="cls-2" points="326.38 141.49 334.13 143.56 352.52 125.17 350.45 117.42 326.38 141.49"/><polygon class="cls-2" points="292.82 155.26 282.82 165.26 282.82 179.4 292.82 169.4 292.82 155.26"/><polygon class="cls-2" points="349.25 112.96 346.27 101.81 310.77 137.31 313.2 137.96 313.2 149.02 349.25 112.96"/></g></g></svg>